<svg id="&#x421;&#x43B;&#x43E;&#x439;_1" enable-background="new 0 0 4000 4000" viewBox="0 0 4000 4000" xmlns="http://www.w3.org/2000/svg"><g fill="rgb(0,0,0)"><path d="m3807.052 2312.392c-22.863-36.993-55.507-66.827-94.403-86.274l-202.51-101.256-257.256-514.51c-19.449-38.897-49.281-71.542-86.274-94.405-36.994-22.863-79.534-34.948-123.022-34.948h-449.585v-545.999c0-52.616-10.323-103.698-30.68-151.83-19.648-46.45-47.758-88.15-83.55-123.942s-77.492-63.902-123.942-83.549c-48.13-20.357-99.214-30.679-151.83-30.679h-312c-43.078 0-78 34.922-78 78s34.922 78 78 78h312c129.028 0 234 104.972 234 234v2106h-943.79c-5.125-25.223-12.765-49.892-22.89-73.83-19.647-46.452-47.757-88.152-83.548-123.942-35.792-35.793-77.492-63.903-123.942-83.55-48.131-20.358-99.215-30.68-151.83-30.68s-103.698 10.323-151.83 30.68c-46.45 19.648-88.15 47.758-123.942 83.55-35.792 35.79-63.901 77.492-83.548 123.942-10.125 23.938-17.765 48.606-22.89 73.83h-85.79c-129.028 0-234-104.972-234-234v-624c0-43.078-34.922-78-78-78s-78 34.922-78 78v624c0 52.615 10.322 103.698 30.68 151.828 19.647 46.45 47.757 88.15 83.548 123.942 35.792 35.793 77.492 63.903 123.942 83.549 48.132 20.359 99.215 30.681 151.83 30.681h85.79c5.125 25.223 12.765 49.891 22.89 73.828 19.647 46.45 47.757 88.15 83.548 123.942 35.792 35.793 77.492 63.903 123.942 83.549 48.131 20.36 99.215 30.681 151.83 30.681s103.698-10.322 151.829-30.68c46.45-19.647 88.15-47.757 123.942-83.549s63.901-77.493 83.548-123.942c10.125-23.938 17.765-48.606 22.89-73.83h1263.58c5.125 25.223 12.765 49.891 22.889 73.828 19.648 46.45 47.758 88.15 83.55 123.942 35.79 35.793 77.492 63.903 123.942 83.549 48.131 20.36 99.213 30.681 151.83 30.681s103.698-10.322 151.83-30.681c46.452-19.647 88.152-47.757 123.942-83.549 35.793-35.792 63.903-77.493 83.55-123.942 10.125-23.937 17.765-48.605 22.89-73.828h85.788c129.028 0 234-104.972 234-234v-527.587c0-43.486-12.085-86.026-34.948-123.02zm-2695.052 1040.608c-129.028 0-234-104.972-234-234s104.972-234 234-234 234 104.972 234 234-104.972 234-234 234zm2028 0c-129.028 0-234-104.972-234-234s104.972-234 234-234 234 104.972 234 234-104.972 234-234 234zm546-390c0 43.009-34.991 78-78 78h-85.789c-5.125-25.224-12.765-49.893-22.89-73.831-19.648-46.452-47.758-88.152-83.55-123.942-35.79-35.793-77.492-63.903-123.942-83.55-48.131-20.358-99.214-30.68-151.83-30.68s-103.698 10.323-151.83 30.68c-46.452 19.648-88.152 47.758-123.942 83.55-35.793 35.791-63.903 77.492-83.55 123.942-10.125 23.938-17.766 48.607-22.89 73.831h-163.787v-1404.001h449.585c29.735 0 56.468 16.522 69.766 43.117l212.443 424.884h-341.794c-43.078 0-78 34.922-78 78s34.922 78 78 78h449.588l209.295 104.647c26.595 13.298 43.117 40.031 43.117 69.766z"/><path d="m622.004 2037.542c105.828 44.763 218.201 67.458 333.996 67.458s228.168-22.695 333.996-67.458c102.179-43.217 193.929-105.071 272.701-183.844 78.772-78.772 140.626-170.522 183.845-272.702 44.763-105.829 67.458-218.201 67.458-333.996s-22.695-228.168-67.458-333.996c-43.219-102.179-105.073-193.929-183.845-272.701s-170.522-140.626-272.701-183.845c-105.828-44.763-218.201-67.458-333.996-67.458s-228.168 22.695-333.996 67.458c-102.18 43.217-193.929 105.073-272.701 183.845s-140.626 170.522-183.845 272.701c-44.763 105.828-67.458 218.201-67.458 333.996s22.695 228.167 67.458 333.996c43.217 102.18 105.072 193.931 183.845 272.702 78.772 78.771 170.522 140.625 272.701 183.844zm333.996-1492.542c387.084 0 702 314.916 702 702s-314.916 702-702 702-702-314.916-702-702 314.916-702 702-702z"/><path d="m588.846 1614.154c15.23 15.231 35.193 22.846 55.154 22.846s39.924-7.615 55.155-22.846l256.846-256.846 256.846 256.846c15.229 15.231 35.192 22.846 55.154 22.846s39.924-7.615 55.155-22.846c30.462-30.462 30.462-79.849 0-110.309l-256.845-256.846 256.845-256.845c30.462-30.462 30.462-79.849 0-110.309-30.46-30.462-79.849-30.462-110.309 0l-256.846 256.845-256.846-256.845c-30.46-30.462-79.849-30.462-110.309 0-30.462 30.462-30.462 79.848 0 110.309l256.846 256.845-256.846 256.846c-30.461 30.462-30.461 79.848 0 110.309z"/></g></svg>