<svg width="127" height="45" viewBox="0 0 127 45" fill="none" xmlns="http://www.w3.org/2000/svg">
<path d="M125.195 10.7502C125.195 10.433 125.195 10.1139 125.195 9.79673C125.182 9.1013 125.117 8.40779 125.002 7.72178C124.89 7.03547 124.673 6.37032 124.36 5.74923C123.721 4.50032 122.705 3.48426 121.456 2.84509C120.833 2.53116 120.166 2.31232 119.478 2.19586C118.794 2.0827 118.101 2.02155 117.407 2.01292C117.09 2.01292 116.767 2.00199 116.452 2C116.079 2 115.699 2 115.327 2H11.0789C10.6991 2 10.3233 2 9.94545 2C9.62829 2 9.31213 2.00895 8.99099 2.01292C8.29536 2.02263 7.60144 2.08445 6.91505 2.19785C6.22987 2.31267 5.56611 2.53091 4.94648 2.84509C4.32653 3.16332 3.75998 3.57624 3.26723 4.06899C2.77182 4.55983 2.35858 5.12716 2.04334 5.74923C1.73015 6.37033 1.51325 7.03545 1.40007 7.72178C1.28535 8.40767 1.22353 9.10136 1.21514 9.79673C1.20421 10.1139 1.20421 10.433 1.19824 10.7502V34.7021C1.20421 35.0252 1.20421 35.3364 1.21514 35.6596C1.22361 36.3549 1.28544 37.0486 1.40007 37.7345C1.51324 38.4205 1.73014 39.0853 2.04334 39.7061C2.35725 40.3259 2.7692 40.8909 3.26325 41.3794C3.75552 41.8739 4.32379 42.2864 4.94648 42.6013C5.56575 42.9171 6.22957 43.1367 6.91505 43.2525C7.60109 43.3661 8.29468 43.4283 8.99 43.4384C9.31114 43.4454 9.6273 43.4493 9.94446 43.4493H116.452C116.767 43.4493 117.09 43.4493 117.407 43.4384C118.102 43.4288 118.794 43.3666 119.478 43.2525C120.167 43.1358 120.833 42.9163 121.456 42.6013C122.077 42.286 122.643 41.8735 123.133 41.3794C123.626 40.8892 124.039 40.3245 124.356 39.7061C124.669 39.0853 124.886 38.4205 124.998 37.7345C125.113 37.0485 125.178 36.355 125.191 35.6596C125.191 35.3364 125.191 35.0252 125.191 34.7021C125.198 34.3263 125.198 33.9515 125.198 33.5697V11.8826C125.198 11.5028 125.198 11.127 125.191 10.7502" fill="black"/>
<path d="M125.195 10.7502C125.195 10.433 125.195 10.1139 125.195 9.79673C125.182 9.1013 125.117 8.40779 125.002 7.72178C124.89 7.03547 124.673 6.37032 124.36 5.74923C123.721 4.50032 122.705 3.48426 121.456 2.84509C120.833 2.53116 120.166 2.31232 119.478 2.19586C118.794 2.0827 118.101 2.02155 117.407 2.01292C117.09 2.01292 116.767 2.00199 116.452 2C116.079 2 115.699 2 115.327 2H11.0789C10.6991 2 10.3233 2 9.94545 2C9.62829 2 9.31213 2.00895 8.99099 2.01292C8.29536 2.02263 7.60144 2.08445 6.91505 2.19785C6.22987 2.31267 5.56611 2.53091 4.94648 2.84509C4.32653 3.16332 3.75998 3.57624 3.26723 4.06899C2.77182 4.55983 2.35858 5.12716 2.04334 5.74923C1.73015 6.37033 1.51325 7.03545 1.40007 7.72178C1.28535 8.40767 1.22353 9.10136 1.21514 9.79673C1.20421 10.1139 1.20421 10.433 1.19824 10.7502V34.7021C1.20421 35.0252 1.20421 35.3364 1.21514 35.6596C1.22361 36.3549 1.28544 37.0486 1.40007 37.7345C1.51324 38.4205 1.73014 39.0853 2.04334 39.7061C2.35725 40.3259 2.7692 40.8909 3.26325 41.3794C3.75552 41.8739 4.32379 42.2864 4.94648 42.6013C5.56575 42.9171 6.22957 43.1367 6.91505 43.2525C7.60109 43.3661 8.29468 43.4283 8.99 43.4384C9.31114 43.4454 9.6273 43.4493 9.94446 43.4493H116.452C116.767 43.4493 117.09 43.4493 117.407 43.4384C118.102 43.4288 118.794 43.3666 119.478 43.2525C120.167 43.1358 120.833 42.9163 121.456 42.6013C122.077 42.286 122.643 41.8735 123.133 41.3794C123.626 40.8892 124.039 40.3245 124.356 39.7061C124.669 39.0853 124.886 38.4205 124.998 37.7345C125.113 37.0485 125.178 36.355 125.191 35.6596C125.191 35.3364 125.191 35.0252 125.191 34.7021C125.198 34.3263 125.198 33.9515 125.198 33.5697V11.8826C125.198 11.5028 125.198 11.127 125.191 10.7502" stroke="#ABABAB" stroke-width="2.30274" stroke-miterlimit="10"/>
<path d="M43.5769 13.862C43.5769 14.6335 43.3486 15.2466 42.8919 15.7013C42.3736 16.2461 41.6988 16.5182 40.8677 16.5175C40.489 16.5212 40.1133 16.4489 39.763 16.3051C39.4126 16.1612 39.0947 15.9486 38.8278 15.6799C38.5609 15.4112 38.3505 15.0917 38.2091 14.7404C38.0677 14.3891 37.998 14.013 38.0043 13.6343C37.9987 13.256 38.0688 12.8804 38.2106 12.5297C38.3523 12.1789 38.5628 11.8601 38.8296 11.5919C39.0964 11.3237 39.4142 11.1116 39.7642 10.968C40.1142 10.8245 40.4894 10.7524 40.8677 10.756C41.2563 10.7549 41.641 10.8334 41.9981 10.9867C42.3297 11.1214 42.6252 11.3318 42.8611 11.6011L42.3769 12.0922C42.011 11.6568 41.5099 11.439 40.8677 11.439C40.5886 11.4352 40.3117 11.4873 40.0531 11.5923C39.7946 11.6973 39.5597 11.8531 39.3624 12.0505C38.9389 12.4581 38.7281 12.989 38.7281 13.6412C38.7281 14.2935 38.9389 14.8234 39.3624 15.232C39.7714 15.6253 40.3167 15.845 40.8841 15.845C41.4514 15.845 41.9968 15.6253 42.4057 15.232C42.6732 14.9655 42.8273 14.5917 42.8681 14.1145H40.8677V13.4533H43.5382C43.5634 13.5904 43.5764 13.7295 43.5769 13.8689" fill="white"/>
<path d="M47.8111 11.5579H45.3026V13.3068H47.5645V13.9679H45.3026V15.7168H47.8111V16.3928H44.5938V10.8818H47.8111V11.5579Z" fill="white"/>
<path d="M50.7968 16.3938H50.0879V11.5599H48.5488V10.8838H52.3368V11.5599H50.7968V16.3938Z" fill="white"/>
<path d="M55.7821 10.8838H55.0752V16.3948H55.7821V10.8838Z" fill="white"/>
<path d="M58.9266 16.3938H58.2178V11.5599H56.6797V10.8838H60.4647V11.5599H58.9266V16.3938Z" fill="white"/>
<path d="M67.6329 15.6814C67.0962 16.2162 66.3693 16.5166 65.6116 16.5166C64.8539 16.5166 64.127 16.2162 63.5903 15.6814C63.3252 15.4123 63.1168 15.0927 62.9774 14.7416C62.8381 14.3904 62.7706 14.0149 62.779 13.6372C62.7705 13.2597 62.8378 12.8843 62.9772 12.5333C63.1166 12.1823 63.3251 11.8629 63.5903 11.5941C63.8553 11.3287 64.17 11.1181 64.5164 10.9745C64.8628 10.8308 65.2341 10.7568 65.6091 10.7568C65.9841 10.7568 66.3555 10.8308 66.7019 10.9745C67.0483 11.1181 67.363 11.3287 67.6279 11.5941C68.1511 12.1448 68.4433 12.8751 68.4442 13.6348C68.4452 14.3944 68.1548 15.1254 67.6329 15.6774M64.1143 15.2151C64.5115 15.6116 65.0498 15.8343 65.6111 15.8343C66.1724 15.8343 66.7107 15.6116 67.1079 15.2151C67.5155 14.8028 67.7197 14.2755 67.7204 13.6333C67.721 12.991 67.5169 12.464 67.1079 12.0524C66.7107 11.6559 66.1724 11.4332 65.6111 11.4332C65.0498 11.4332 64.5115 11.6559 64.1143 12.0524C63.7073 12.4647 63.5035 12.9916 63.5028 13.6333C63.5022 14.2749 63.706 14.8021 64.1143 15.2151Z" fill="white"/>
<path d="M69.4395 16.3918V10.8818H70.3014L72.9799 15.1699H73.0107L72.9799 14.1081V10.8818H73.6888V16.3918H72.9501L70.1473 11.8979H70.1175L70.1473 12.9608V16.3918H69.4395Z" fill="white"/>
<path d="M62.6052 24.4342C60.4448 24.4342 58.684 26.0767 58.684 28.3405C58.684 30.5895 60.4448 32.2478 62.6052 32.2478C64.7657 32.2478 66.5275 30.5895 66.5275 28.3405C66.5275 26.0767 64.7667 24.4342 62.6052 24.4342ZM62.6052 30.7078C61.4221 30.7078 60.401 29.7324 60.401 28.3405C60.401 26.9486 61.4221 25.9723 62.6052 25.9723C63.7884 25.9723 64.8104 26.9357 64.8104 28.3405C64.8104 29.7454 63.7894 30.7078 62.6052 30.7078ZM54.0549 24.4342C51.8934 24.4342 50.1327 26.0767 50.1327 28.3405C50.1327 30.5895 51.8934 32.2478 54.0549 32.2478C56.2163 32.2478 57.9751 30.5895 57.9751 28.3405C57.9751 26.0767 56.2153 24.4342 54.0549 24.4342ZM54.0549 30.7078C52.8708 30.7078 51.8497 29.7324 51.8497 28.3405C51.8497 26.9486 52.8708 25.9723 54.0549 25.9723C55.239 25.9723 56.2601 26.9357 56.2601 28.3405C56.2601 29.7454 55.234 30.7078 54.0509 30.7078M43.875 25.6372V27.2936H47.841C47.7217 28.2252 47.4115 28.9072 46.9382 29.3815C46.3606 29.9601 45.4588 30.5944 43.875 30.5944C41.4322 30.5855 39.5252 28.6219 39.5252 26.1791C39.5252 23.7362 41.4342 21.7687 43.877 21.7687C44.9906 21.7545 46.0648 22.1808 46.8656 22.9548L48.0348 21.7856C47.0406 20.8371 45.7272 20.1133 43.877 20.1133C40.5314 20.1133 37.7197 22.8355 37.7197 26.1781C37.7197 29.5207 40.5314 32.2429 43.877 32.2429C45.6815 32.2429 47.0426 31.6463 48.1074 30.5407C49.2011 29.4471 49.5431 27.908 49.5431 26.6633C49.5469 26.3163 49.5176 25.9697 49.4556 25.6283L43.875 25.6372ZM85.4914 26.9227C85.1662 26.0498 84.176 24.4372 82.1488 24.4372C80.1215 24.4372 78.4622 26.021 78.4622 28.3435C78.4622 30.5308 80.1205 32.2508 82.3397 32.2508C82.9832 32.2541 83.6175 32.0976 84.1856 31.7953C84.7537 31.493 85.2379 31.0544 85.5947 30.5189L84.2655 29.628C83.822 30.2802 83.2156 30.7078 82.3426 30.7078C81.4697 30.7078 80.8513 30.3101 80.4476 29.5236L85.6723 27.3642L85.4914 26.9227ZM80.1643 28.2252C80.1205 26.7169 81.3335 25.9474 82.2064 25.9474C82.8885 25.9474 83.4651 26.2884 83.657 26.7766L80.1643 28.2252ZM75.9189 32.0142H77.636V20.5269H75.9189V32.0142ZM73.1053 25.3101H73.0466C72.6618 24.8528 71.9221 24.4382 70.9896 24.4382C69.0369 24.4382 67.2453 26.1552 67.2453 28.3584C67.2453 30.5616 69.0349 32.2518 70.9896 32.2518C71.9221 32.2518 72.6618 31.8372 73.0466 31.364H73.1053V31.9267C73.1053 33.418 72.3099 34.2194 71.0174 34.2194C69.9665 34.2194 69.3143 33.4648 69.0498 32.8275L67.5535 33.4498C67.985 34.4858 69.1224 35.7594 71.0174 35.7594C73.0307 35.7594 74.7308 34.5743 74.7308 31.6891V24.6718H73.1053V25.3101ZM71.1417 30.7078C69.9585 30.7078 68.9663 29.7135 68.9663 28.3544C68.9663 26.9953 69.9605 25.9683 71.1417 25.9683C72.3228 25.9683 73.2295 26.9754 73.2295 28.3544C73.2295 29.7334 72.3119 30.7078 71.1417 30.7078ZM93.5327 20.5289H89.4265V32.0102H91.1396V27.6585H93.5327C95.4316 27.6585 97.3008 26.2844 97.3008 24.0932C97.3008 21.9019 95.4316 20.5289 93.5327 20.5289ZM93.5764 26.0617H91.1396V22.1256H93.5764C93.8386 22.1197 94.0993 22.1663 94.3432 22.2625C94.5872 22.3588 94.8094 22.5028 94.9969 22.6861C95.1844 22.8695 95.3334 23.0884 95.4351 23.3301C95.5368 23.5718 95.5892 23.8314 95.5892 24.0937C95.5892 24.3559 95.5368 24.6155 95.4351 24.8572C95.3334 25.0989 95.1844 25.3179 94.9969 25.5012C94.8094 25.6845 94.5872 25.8286 94.3432 25.9248C94.0993 26.0211 93.8386 26.0676 93.5764 26.0617ZM104.171 24.4113C102.928 24.4113 101.644 24.9591 101.112 26.1691L102.634 26.8054C102.958 26.1691 103.564 25.9633 104.2 25.9633C105.087 25.9633 105.989 26.4962 106.002 27.4407V27.56C105.451 27.2669 104.837 27.1142 104.213 27.1156C102.574 27.1156 100.906 28.0164 100.906 29.7006C100.906 31.2367 102.249 32.2269 103.756 32.2269C104.909 32.2269 105.546 31.7099 105.944 31.1055H106.004V31.9903H107.66V27.5889C107.66 25.5517 106.137 24.4073 104.173 24.4073M103.965 30.7008C103.403 30.7008 102.62 30.4224 102.62 29.7265C102.62 28.8406 103.595 28.5006 104.437 28.5006C105.191 28.5006 105.545 28.6646 106.004 28.8844C105.941 29.3825 105.7 29.8409 105.325 30.1748C104.95 30.5088 104.467 30.6956 103.965 30.7008ZM113.686 24.6609L111.721 29.639H111.661L109.618 24.6649H107.771L110.83 31.6244L109.085 35.497H110.875L115.588 24.6678L113.686 24.6609ZM98.2453 32.0102H99.9593V20.5269H98.2453V32.0102Z" fill="white"/>
<path d="M29.6874 24.0108L25.0771 26.6733L21.1748 22.8177L25.0334 18.9531L29.6874 21.6375C29.8955 21.7576 30.0684 21.9303 30.1885 22.1383C30.3087 22.3464 30.372 22.5824 30.372 22.8227C30.372 23.0629 30.3087 23.2989 30.1885 23.507C30.0684 23.715 29.8955 23.8878 29.6874 24.0078" fill="#FED400"/>
<path d="M25.0782 26.672L11.2336 34.6606C10.971 34.8134 10.665 34.874 10.364 34.833C10.063 34.7919 9.78433 34.6515 9.57227 34.434L21.1759 22.8164L25.0782 26.672Z" fill="#F83345"/>
<path d="M21.1761 22.8162L9.57243 34.4377C9.44702 34.3118 9.34782 34.1623 9.28058 33.9977C9.21334 33.8332 9.1794 33.657 9.1807 33.4793V12.168C9.17824 11.8449 9.29184 11.5316 9.50084 11.2852L21.1761 22.8162Z" fill="#00D7FE"/>
<path d="M25.0338 18.9515L21.1752 22.8171L9.5 11.2851C9.70792 11.0402 9.99527 10.8762 10.3118 10.8216C10.6284 10.7671 10.9541 10.8256 11.2319 10.9868L25.0338 18.9515Z" fill="#00EF77"/>
</svg>
