<svg width="56" height="56" viewBox="0 0 56 56" fill="none" xmlns="http://www.w3.org/2000/svg">
<path fill-rule="evenodd" clip-rule="evenodd" d="M33.8283 34.4203C33.9573 34.7197 34.2419 34.9226 34.5669 34.9467C34.5888 34.9484 34.6105 34.9491 34.6322 34.9491C34.9332 34.9491 35.2152 34.7939 35.3755 34.5355L37.4955 31.1192L41.4344 31.9258C41.7541 31.991 42.083 31.8736 42.2887 31.6209C42.4944 31.3681 42.5425 31.0218 42.4137 30.7225L39.4885 23.9307C39.5779 23.8928 39.6695 23.8537 39.766 23.8125C41.2745 23.1665 42.157 21.6377 41.9623 20.0083C41.9261 19.7057 41.8923 19.4364 41.862 19.1947C41.7405 18.225 41.6794 17.7383 41.745 17.3665C41.8106 16.9946 42.0344 16.5581 42.4803 15.6885C42.5915 15.4716 42.7154 15.2303 42.8528 14.9581C43.5932 13.4936 43.2866 11.7551 42.0901 10.6322C41.8679 10.4237 41.6689 10.2391 41.4904 10.0733C40.7738 9.40877 40.4142 9.07518 40.2255 8.74815C40.0367 8.42111 39.9276 7.94293 39.7103 6.99027C39.656 6.75271 39.5957 6.48802 39.5261 6.19118C39.1518 4.59343 37.7995 3.45877 36.1611 3.36766C35.8568 3.35071 35.5858 3.33725 35.3424 3.32511C34.3663 3.27655 33.8764 3.25216 33.5216 3.12299C33.1668 2.99382 32.7759 2.69763 31.9969 2.10744C31.8028 1.96022 31.5863 1.79638 31.3424 1.61372C30.0286 0.630441 28.2635 0.630332 26.9497 1.61372C26.7058 1.79638 26.4894 1.96022 26.2952 2.10744C25.5163 2.69763 25.1253 2.99382 24.7705 3.12299C24.4157 3.25216 23.9257 3.27655 22.9498 3.32511C22.7063 3.33725 22.4354 3.35071 22.1311 3.36766C20.4927 3.45877 19.1402 4.59354 18.7661 6.19118C18.6965 6.48802 18.6361 6.7526 18.5819 6.99027C18.3645 7.94293 18.2555 8.42122 18.0666 8.74815C17.8778 9.07518 17.5182 9.40877 16.8018 10.0733C16.6232 10.2391 16.4242 10.4237 16.2021 10.6322C15.0056 11.7552 14.699 13.4937 15.4392 14.9582C15.5767 15.2301 15.7005 15.4715 15.8116 15.6883C16.2575 16.558 16.4814 16.9945 16.5471 17.3663C16.6127 17.7381 16.5515 18.2248 16.43 19.1943C16.3997 19.4362 16.3659 19.7056 16.3297 20.0083C16.135 21.6377 17.0176 23.1665 18.5261 23.8125C18.8063 23.9325 19.0563 24.0379 19.2809 24.1325C19.3491 24.1613 19.4139 24.1886 19.4771 24.2153L15.8888 31.9223C15.7513 32.2178 15.7894 32.5652 15.9876 32.824C16.1859 33.0827 16.5115 33.2101 16.8328 33.1535L20.7935 32.4615L22.8136 35.9378C22.9708 36.208 23.2593 36.3731 23.57 36.3731C23.5832 36.3731 23.5965 36.3728 23.6097 36.3722C23.9355 36.3575 24.2258 36.1629 24.3634 35.8675L27.9344 28.1971C28.5073 28.0249 28.8546 27.9382 29.1463 27.9382C29.5239 27.9382 29.9926 28.0828 30.9265 28.371C31.0345 28.4044 31.149 28.4397 31.2689 28.4764L33.8283 34.4203ZM37.2491 29.2823C36.8902 29.2089 36.5233 29.3669 36.33 29.6781L34.7724 32.1883L33.2854 28.7354C34.3061 28.5938 35.2402 28.0219 35.8374 27.1086C36.0042 26.8534 36.1514 26.6255 36.2837 26.4207C36.8138 25.5998 37.0798 25.1878 37.3691 24.9449C37.4989 24.836 37.662 24.7376 37.8832 24.6279L40.1431 29.8749L37.2491 29.2823ZM23.4837 33.6091L21.9996 31.055C21.8154 30.7381 21.4534 30.5698 21.0925 30.6327L18.1824 31.141L21.0238 25.0383C21.2776 25.2906 21.5399 25.6963 22.0077 26.4208C22.14 26.6256 22.2872 26.8535 22.454 27.1086C23.1923 28.2377 24.4449 28.8459 25.7399 28.763L23.4837 33.6091ZM29.1456 26.1873C28.5502 26.1873 27.9545 26.3578 26.8494 26.6989C26.6194 26.7699 26.3635 26.8488 26.0754 26.9359C25.2423 27.1875 24.3953 26.8797 23.9185 26.1508C23.7537 25.8989 23.6083 25.6737 23.4778 25.4716C22.223 23.5284 22.0915 23.4182 19.9599 22.5199C19.7382 22.4265 19.4912 22.3223 19.2145 22.2038C18.414 21.8609 17.9635 21.0806 18.0668 20.2159C18.1026 19.917 18.136 19.6509 18.1659 19.4121C18.4537 17.1172 18.4238 16.9481 17.3683 14.8897C17.2584 14.6755 17.1363 14.4372 17.0005 14.1687C16.6077 13.3914 16.7642 12.5042 17.3992 11.9082C17.6187 11.7023 17.8152 11.52 17.9916 11.3563C19.6874 9.78316 19.7732 9.63452 20.2877 7.37954C20.3412 7.14482 20.4008 6.88352 20.4695 6.59029C20.668 5.74241 21.3583 5.16327 22.2278 5.11493C22.5283 5.09819 22.796 5.08485 23.0364 5.07293C25.3466 4.95786 25.508 4.89913 27.3517 3.5023C27.5435 3.35694 27.7571 3.19507 27.9981 3.01471C28.6953 2.49288 29.5962 2.49288 30.2934 3.01471C30.5344 3.19507 30.748 3.35694 30.9398 3.5023C32.7835 4.89913 32.9449 4.95786 35.2551 5.07293C35.4954 5.08485 35.7632 5.09819 36.0637 5.11493C36.9333 5.16327 37.6234 5.74241 37.822 6.59029C37.8907 6.88341 37.9503 7.14471 38.0038 7.37943C38.5183 9.63441 38.6041 9.78316 40.2999 11.3562C40.4763 11.5199 40.6728 11.7021 40.8923 11.9081C41.5273 12.5041 41.6836 13.3913 41.2909 14.1686C41.1551 14.4372 41.0328 14.6757 40.9229 14.8899C39.8676 16.9481 39.8377 17.1172 40.1256 19.4123C40.1554 19.6511 40.1889 19.917 40.2246 20.2158C40.3279 21.0805 39.8774 21.8609 39.0769 22.2037C38.8002 22.3221 38.5532 22.4263 38.3315 22.5198C36.2 23.4181 36.0685 23.5284 34.8137 25.4715C34.6832 25.6737 34.5378 25.8988 34.373 26.1508C33.8965 26.8796 33.0501 27.1879 32.2161 26.9359C31.928 26.8488 31.672 26.7698 31.4421 26.6989C30.3367 26.3578 29.7411 26.1873 29.1456 26.1873ZM37.8297 14.8231C37.8297 10.0346 33.9341 6.139 29.1456 6.139C24.3573 6.139 20.4617 10.0346 20.4617 14.8231C20.4617 19.6115 24.3573 23.5072 29.1456 23.5072C33.934 23.5072 37.8297 19.6116 37.8297 14.8231ZM29.1455 21.7572C25.3221 21.7572 22.2116 18.6466 22.2116 14.8231C22.2116 10.9996 25.3221 7.889 29.1455 7.889C32.969 7.889 36.0796 10.9996 36.0796 14.8231C36.0797 18.6466 32.969 21.7572 29.1455 21.7572ZM33.9513 12.7599L27.9762 18.1824C27.8091 18.3341 27.5985 18.4095 27.3883 18.4095C27.1639 18.4095 26.9399 18.3236 26.7695 18.1532L24.3094 15.6931C23.9677 15.3514 23.9677 14.7975 24.3094 14.4558C24.6512 14.1141 25.2051 14.1141 25.5469 14.4558L27.4175 16.3264L32.7753 11.4641C33.133 11.1395 33.6865 11.1662 34.0112 11.5241C34.3359 11.8817 34.3091 12.4352 33.9513 12.7599ZM50.5626 41.4288C51.7159 40.2757 52.3016 38.8209 52.2565 37.2217L51.8303 22.1791C51.7883 20.6936 50.3116 19.3627 48.7192 19.3627C48.7039 19.3627 48.6887 19.3628 48.6735 19.363C47.8966 19.3755 45.3635 19.7939 45.3819 24.656L45.4131 32.8273C45.4139 33.0141 45.402 33.1955 45.3778 33.3724C45.3161 33.2987 45.25 33.2266 45.1796 33.1562C44.0996 32.0763 42.331 32.0626 41.153 33.125C41.1237 33.1513 41.0962 33.1797 41.0708 33.2098C39.7527 34.7681 38.1332 36.1331 36.8317 37.2298C36.3753 37.6145 35.9444 37.9777 35.5905 38.2967C34.1063 39.6343 33.9083 41.4774 33.9102 43.1038L33.9172 48.9232L33.1627 48.9168C32.6518 48.9121 32.1703 49.1077 31.805 49.4667C31.4397 49.8258 31.236 50.3046 31.2316 50.8149L31.2121 53.0912C31.2077 53.6014 31.403 54.0836 31.7621 54.449C32.1211 54.8143 32.5999 55.0178 33.1102 55.0222L44.9353 55.1238C44.9409 55.1238 44.9465 55.1239 44.9521 55.1239C45.4561 55.1239 45.9318 54.9289 46.293 54.5738C46.6583 54.2147 46.8619 53.7359 46.8663 53.2257L46.8858 50.9494C46.8902 50.4392 46.6949 49.9569 46.3358 49.5916C45.9768 49.2263 45.498 49.0228 44.9877 49.0184L44.0148 49.0101V47.9766L50.5626 41.4288ZM45.1358 50.9344L45.1163 53.2107C45.1158 53.2656 45.0888 53.3037 45.0662 53.3259C45.0436 53.3482 45.0084 53.3742 44.9502 53.374L33.125 53.2724C33.0702 53.272 33.0322 53.245 33.01 53.2223C32.9878 53.1997 32.9614 53.1613 32.962 53.1064L32.9815 50.8301C32.982 50.7752 33.009 50.7371 33.0316 50.7149C33.0539 50.6929 33.092 50.6668 33.1459 50.6668H33.1475H33.1476L44.9728 50.7684C45.062 50.7693 45.1367 50.8452 45.1358 50.9344ZM35.6672 48.9384L35.6602 43.1018C35.658 41.3196 35.9773 40.3041 36.7622 39.5967C37.0944 39.2972 37.4952 38.9594 37.9594 38.5683C39.2973 37.4406 40.9592 36.0401 42.3637 34.391C42.8549 33.979 43.5255 33.9771 43.9421 34.3937C44.3855 34.837 44.3861 35.3644 43.9458 35.9614C43.2501 36.7434 42.5186 37.4519 41.7445 38.2009C41.373 38.5605 40.9887 38.9324 40.601 39.3201C40.2593 39.6618 40.2593 40.2158 40.6011 40.5575C40.772 40.7283 40.9958 40.8137 41.2198 40.8137C41.4438 40.8137 41.6678 40.7283 41.8385 40.5573C42.216 40.1799 42.5949 39.813 42.9616 39.4583C43.7703 38.6758 44.534 37.9366 45.2823 37.0925C45.2862 37.088 45.8683 36.3759 45.8683 36.3759C46.7445 35.2973 47.168 34.1343 47.1631 32.8208L47.1319 24.6494C47.1237 22.4837 47.7252 21.1285 48.7015 21.1129C48.7075 21.1128 48.7133 21.1128 48.7192 21.1128C49.369 21.1128 50.0656 21.681 50.081 22.2287L50.5071 37.2714C50.5388 38.3931 50.1412 39.3757 49.3251 40.1915L42.5211 46.9955C42.357 47.1595 42.2648 47.3821 42.2648 47.6141V48.9951L35.6672 48.9384ZM33.8233 51.7199C33.9675 51.3569 34.3789 51.1796 34.7419 51.324C35.1049 51.4683 35.2822 51.8796 35.138 52.2426C34.9936 52.6057 34.5823 52.783 34.2193 52.6386C33.8562 52.4942 33.6789 52.083 33.8233 51.7199ZM24.1949 49.4669C23.8296 49.1077 23.347 48.913 22.8371 48.917L22.0826 48.9234L22.0896 43.104C22.0916 41.4775 21.8935 39.6344 20.4094 38.2969C20.0557 37.9778 19.6245 37.6147 19.1682 37.2302C17.8669 36.1333 16.2473 34.7683 14.9292 33.21C14.9038 33.1799 14.8764 33.1516 14.847 33.1252C13.6685 32.0628 11.8998 32.0766 10.8204 33.1564C10.7499 33.2268 10.6839 33.2989 10.6222 33.3726C10.5978 33.1958 10.5861 33.0144 10.5869 32.8276L10.6181 24.6561C10.6364 19.794 8.10342 19.3757 7.32653 19.3631C7.31122 19.3629 7.29624 19.3628 7.28081 19.3628C5.68842 19.3628 4.21153 20.6939 4.16964 22.1792L3.74352 37.222C3.69835 38.8211 4.28405 40.2758 5.4373 41.429L11.985 47.9768V49.0103L11.0121 49.0186C10.5019 49.023 10.0231 49.2265 9.6641 49.5918C9.30502 49.9571 9.10967 50.4394 9.11405 50.9496L9.13363 53.2259C9.138 53.7362 9.34155 54.2149 9.70686 54.574C10.0681 54.9291 10.5437 55.1241 11.0478 55.1241C11.0534 55.1241 11.0591 55.1241 11.0645 55.124L22.8897 55.0224C23.4 55.018 23.8788 54.8145 24.2378 54.4492C24.5968 54.0839 24.7922 53.6016 24.7878 53.0914L24.7682 50.8151C24.764 50.3048 24.5602 49.826 24.1949 49.4669ZM13.735 47.6141C13.735 47.382 13.6428 47.1595 13.4788 46.9955L6.67466 40.1914C5.85872 39.3756 5.46103 38.3931 5.49275 37.2714L5.91888 22.2286C5.93452 21.6758 6.64819 21.1034 7.29842 21.1129C8.2747 21.1285 8.87616 22.4837 8.86796 24.6493L8.83678 32.8208C8.83186 34.1343 9.25536 35.2972 10.1331 36.3778L10.6948 37.0656C10.6987 37.0703 10.7138 37.088 10.7177 37.0925C11.4659 37.9366 12.2297 38.6758 13.0384 39.4583C13.405 39.8132 13.7839 40.1799 14.1615 40.5573C14.3323 40.7282 14.5562 40.8137 14.7802 40.8137C15.0041 40.8137 15.2281 40.7283 15.3988 40.5575C15.7406 40.2158 15.7406 39.6618 15.399 39.3201C15.0113 38.9325 14.627 38.5605 14.2554 38.2009C13.4814 37.4518 12.7499 36.7434 12.0542 35.9614C11.614 35.3646 11.6145 34.8371 12.0579 34.3938C12.4747 33.9771 13.1451 33.979 13.6364 34.391C15.0408 36.0402 16.7026 37.4407 18.0407 38.5684C18.5048 38.9596 18.9056 39.2973 19.2379 39.5969C20.0227 40.3041 20.3419 41.3197 20.3398 43.102L20.3328 48.9385L13.7351 48.9952L13.735 47.6141ZM22.9898 53.2224C22.9676 53.2451 22.9295 53.2721 22.8747 53.2725L11.0495 53.3741C10.9937 53.3742 10.9561 53.3483 10.9336 53.326C10.911 53.3038 10.884 53.2658 10.8835 53.2108L10.8639 50.9345C10.8634 50.8796 10.8898 50.8411 10.912 50.8186C10.9342 50.7961 10.9722 50.7689 11.027 50.7685L22.8521 50.6669H22.8537C22.9078 50.6669 22.9458 50.693 22.9681 50.715C22.9908 50.7372 23.0178 50.7753 23.0182 50.8302L23.0378 53.1065C23.0384 53.1614 23.012 53.1998 22.9898 53.2224ZM22.1766 51.7199C22.321 52.083 22.1437 52.4942 21.7807 52.6386C21.4176 52.783 21.0063 52.6057 20.862 52.2426C20.7176 51.8796 20.8949 51.4684 21.258 51.324C21.621 51.1796 22.0322 51.3569 22.1766 51.7199Z" fill="#8121CF"/>
</svg>
