<svg width="23" height="23" viewBox="0 0 23 23" fill="none" xmlns="http://www.w3.org/2000/svg">
<path d="M20.0869 10.4447H19.9262L19.7173 9.54084L21.9509 8.79605C22.1533 8.72872 22.3207 8.58372 22.4162 8.39297C22.5117 8.20222 22.5276 7.98133 22.4602 7.7789C22.3929 7.57647 22.2479 7.40908 22.0572 7.31355C21.8664 7.21803 21.6455 7.20219 21.4431 7.26952L19.3541 7.9653L17.9433 1.86801C17.8227 1.33597 17.5243 0.860948 17.0973 0.521344C16.6704 0.18174 16.1404 -0.00215108 15.5949 1.89884e-05H6.90328C6.35774 -0.00215108 5.82776 0.18174 5.40081 0.521344C4.97386 0.860948 4.67545 1.33597 4.55483 1.86801L3.14721 7.96851L1.05827 7.27274C0.958036 7.23939 0.852217 7.22612 0.746855 7.23368C0.641492 7.24123 0.538649 7.26947 0.444198 7.31677C0.349747 7.36407 0.265537 7.42951 0.196376 7.50935C0.127215 7.5892 0.0744587 7.68188 0.0411178 7.78211C0.00777702 7.88235 -0.0054949 7.98817 0.00205989 8.09353C0.00961468 8.19889 0.0378483 8.30173 0.0851485 8.39619C0.132449 8.49064 0.197889 8.57485 0.277734 8.64401C0.357579 8.71317 0.450264 8.76593 0.550497 8.79927L2.78405 9.54405L2.57195 10.4447H2.41126C1.772 10.4447 1.15893 10.6986 0.70691 11.1507C0.254889 11.6027 0.000946003 12.2158 0.000946003 12.855V21.3715C0.000946003 21.6698 0.119453 21.9559 0.330396 22.1668C0.541339 22.3778 0.82744 22.4963 1.12576 22.4963H4.5002C4.77929 22.4962 5.04841 22.3924 5.25525 22.205C5.46209 22.0177 5.59187 21.7601 5.61938 21.4823L6.27258 18.4791H7.31705C7.50145 19.3872 7.99413 20.2036 8.71161 20.7901C9.42909 21.3765 10.3272 21.6969 11.2539 21.6969C12.1805 21.6969 13.0787 21.3765 13.7962 20.7901C14.5137 20.2036 15.0063 19.3872 15.1907 18.4791H16.2312L16.8844 21.4823C16.9118 21.7591 17.0408 22.0159 17.2464 22.2032C17.4521 22.3904 17.7198 22.4948 17.9979 22.4963H21.3724C21.5201 22.4963 21.6664 22.4672 21.8028 22.4106C21.9393 22.3541 22.0633 22.2713 22.1677 22.1668C22.2722 22.0624 22.355 21.9384 22.4116 21.8019C22.4681 21.6654 22.4972 21.5192 22.4972 21.3715V12.855C22.4972 12.2158 22.2433 11.6027 21.7912 11.1507C21.3392 10.6986 20.7261 10.4447 20.0869 10.4447ZM6.12073 2.22875C6.16095 2.05153 6.26041 1.89332 6.40269 1.78026C6.54497 1.6672 6.72155 1.60604 6.90328 1.60689H15.5949C15.7766 1.60604 15.9532 1.6672 16.0955 1.78026C16.2377 1.89332 16.3372 2.05153 16.3774 2.22875L17.7167 8.03439H4.7814L6.12073 2.22875ZM4.41021 9.64127H18.0879L18.2735 10.4447H4.22462L4.41021 9.64127ZM11.2491 20.086C10.7523 20.0839 10.2684 19.9284 9.86338 19.6408C9.4584 19.3531 9.15217 18.9474 8.98659 18.4791H13.5116C13.346 18.9474 13.0397 19.3531 12.6348 19.6408C12.2298 19.9284 11.7458 20.0839 11.2491 20.086ZM20.8903 20.8894H18.394L17.7135 17.756C17.6575 17.506 17.5182 17.2824 17.3186 17.1218C17.1189 16.9613 16.8706 16.8733 16.6144 16.8722H5.88372C5.6275 16.8733 5.37925 16.9613 5.17958 17.1218C4.97991 17.2824 4.84066 17.506 4.78461 17.756L4.1041 20.8894H1.60782V12.855C1.60782 12.6419 1.69247 12.4376 1.84314 12.2869C1.99382 12.1362 2.19817 12.0516 2.41126 12.0516H20.0869C20.3 12.0516 20.5043 12.1362 20.655 12.2869C20.8057 12.4376 20.8903 12.6419 20.8903 12.855V20.8894Z" fill="#8121CF"/>
<path d="M6.83016 16.0688C7.49575 16.0688 8.03531 15.5292 8.03531 14.8636C8.03531 14.198 7.49575 13.6584 6.83016 13.6584C6.16457 13.6584 5.625 14.198 5.625 14.8636C5.625 15.5292 6.16457 16.0688 6.83016 16.0688Z" fill="#8121CF"/>
<path d="M16.4713 16.0688C17.1369 16.0688 17.6764 15.5292 17.6764 14.8636C17.6764 14.198 17.1369 13.6584 16.4713 13.6584C15.8057 13.6584 15.2661 14.198 15.2661 14.8636C15.2661 15.5292 15.8057 16.0688 16.4713 16.0688Z" fill="#8121CF"/>
</svg>
